<?xml version="1.0" encoding="utf-8"?>
<!-- Generator: Adobe Illustrator 22.0.1, SVG Export Plug-In . SVG Version: 6.00 Build 0)  -->
<svg version="1.1" id="Layer_1" xmlns="http://www.w3.org/2000/svg" xmlns:xlink="http://www.w3.org/1999/xlink" x="0px" y="0px"
	 width="1000px" height="183.9925995px" viewBox="0 0 1000 183.9925995" enable-background="new 0 0 1000 183.9925995"
	 xml:space="preserve">
<g>
	<path fill="#808080" d="M908.0471802,33.9958153H882.312439v136.8482666h-25.3671265V33.9958153h-25.7347412V13.1485109h76.8366089
		V33.9958153z"/>
	<path fill="#808080" d="M913.583374,13.1485109h27.2485352l8.4556274,70.997612
		c2.4437256,20.2850494,4.4981689,37.7586899,7.1364746,61.8066483h1.1245728
		c2.4437256-24.0479202,4.6928101-41.0890884,7.1365356-61.8066483l8.4556274-70.997612H1000l-25.8642578,157.6955719h-34.1471558
		L913.583374,13.1485109z"/>
	<path fill="#FF0000" d="M257.2393188,28.8056107c-3.0497589-11.3279228-11.8982391-20.1763954-23.2261658-23.226141
		C213.5118713,0,131.3553162,0,131.3553162,0S49.1771431,0,28.7191048,5.4929638
		C17.3692055,8.5581856,8.5159645,17.4444084,5.4929638,28.8056107C0,49.2852783,0,92.0395432,0,92.0395432
		s0,42.7542801,5.4929638,63.2339554c3.0497456,11.3279266,11.8982182,20.1764069,23.226141,23.2261505
		c20.4796677,5.4929504,102.6362152,5.4929504,102.6362152,5.4929504s82.1781616,0,102.6362152-5.4929504
		c11.3362427-3.0430756,20.1941681-11.892746,23.2477875-23.2261505
		c5.4929504-20.4796753,5.4929504-63.2339325,5.4929504-63.2339325S262.6457825,49.2852783,257.2393188,28.8056107z"/>
	<polygon fill="#FFFFFF" points="105.0799484,131.4418335 173.3527069,92.0395508 105.0799484,52.6372795 	"/>
	<path fill="#282828" d="M381.3500061,167.4055939c-5.5220947-3.9594421-9.4547729-9.7549286-11.0940552-16.3491211
		c-2.4612427-9.6320038-3.5675659-19.5601044-3.2871399-29.4976425v-16.7167587
		c-0.296814-10.0997925,0.9873962-20.1838913,3.8061218-29.8869247c1.8947144-6.6721954,6.0447998-12.4807854,11.7428284-16.435627
		c6.3391113-3.7111015,13.6176453-5.5063133,20.9554443-5.1685753c8.5205688,0,15.3471375,1.7516899,20.4796448,5.2550812
		c5.5101624,4.0430298,9.4829712,9.8383255,11.2670593,16.4356308c2.6667786,9.6929626,3.8695068,19.7301559,3.5682373,29.7787628
		v16.7167664c0.2858276,9.9782867-0.8871155,19.9448547-3.48172,29.5841522
		c-1.7183533,6.6041412-5.7072754,12.3922882-11.2670593,16.3491211c-5.2045593,3.4457397-12.247406,5.1685791-21.128418,5.1685791
		C393.7271118,172.6534576,386.5401917,170.9089661,381.3500061,167.4055939z M410.480011,149.3696594
		c1.4417725-3.7629089,2.1625671-9.8974152,2.1625671-18.4035797V95.1536713
		c0.2834778-6.1187439-0.4472351-12.2422256-2.1625671-18.1224442c-0.9222412-3.4304123-4.0605774-5.7930984-7.6122742-5.7308502
		c-3.4949951-0.0190582-6.553894,2.3442612-7.4176331,5.7308502c-1.7169189,5.8799057-2.4476929,12.0036469-2.1625977,18.1224442
		v35.8772583c0,8.5205841,0.7208862,14.6550751,2.1625977,18.4035645c0.8840027,3.3978424,3.9943848,5.7373352,7.5041504,5.6443481
		c3.5079346,0.0227966,6.5903015-2.3222656,7.5041199-5.7091827H410.480011z"/>
	<path fill="#282828" d="M780.3898926,121.8399429v5.7524796c-0.0856323,5.5510864,0.1309204,11.1027069,0.6487427,16.6302795
		c0.1473389,2.8952789,1.09021,5.6938629,2.7248535,8.0880737c1.6398315,1.823288,4.0465698,2.7618561,6.487793,2.5302124
		c3.3424072,0.3055267,6.5232544-1.4960785,7.9799194-4.5197906c1.4417114-2.9987946,2.2275391-8.0448151,2.3571777-15.138092
		l22.1665039,1.492157c0.1453247,1.3718872,0.2102661,2.7510834,0.1946411,4.1305389
		c0,10.6543274-2.8834229,18.583786-8.6503296,23.7884216c-5.7669067,5.2046051-13.9991455,7.8357697-24.6967773,7.8934174
		c-12.7736206,0-21.7267456-4.0079803-26.859314-12.0239563s-7.7060547-20.4147949-7.7203369-37.1964264V103.15522
		c0.000061-17.3006821,2.6599731-29.9229355,7.9799194-37.8668365c5.3199463-7.9438896,14.4244385-11.8942108,27.3134155-11.8509483
		c8.8955078,0,15.7220459,1.6291656,20.4796753,4.8874435c5.0501709,3.6852608,8.6166992,9.0542488,10.0560303,15.1380806
		c2.2171631,9.354126,3.1987305,18.9585114,2.9194946,28.5677414v19.7227554h-43.3814087V121.8399429z M783.677002,73.376442
		c-1.5814819,2.3741379-2.492981,5.1310196-2.6383667,7.9799347c-0.5200195,5.5924759-0.7365723,11.2089996-0.6487427,16.8248978
		v8.2610855h18.9658203v-8.2610855c0.0847168-5.6183929-0.1679688-11.2368164-0.756897-16.8248978
		c-0.1647339-2.8919449-1.1060791-5.6860046-2.7249146-8.0880585c-1.5675049-1.6738586-3.8126831-2.5416641-6.0985107-2.3572083
		c-2.3028564-0.1825409-4.5587769,0.7214279-6.0983887,2.443718V73.376442z"/>
	<path fill="#282828" d="M318.2025452,119.6773605L288.704895,13.1485109h25.842865l10.3371582,48.290493
		c2.6383667,11.8942108,4.5774841,22.0367279,5.8173523,30.4275513h0.7569275
		c0.8794556-6.0119781,2.8185425-16.1040497,5.8173523-30.2761726l10.8128967-48.4634857h25.7347412l-29.8652649,106.5288467
		v51.1883392h-25.7563782V119.6773605z"/>
	<path fill="#282828" d="M522.4585571,55.6216469v115.2224426h-20.2850342l-2.1625671-14.1000519h-0.5622864
		c-5.5073853,10.6543274-13.7756653,15.9742737-24.8048401,15.9598846c-7.6411133,0-13.2782288-2.5014191-16.911438-7.5041656
		c-3.6331177-5.0027924-5.4497375-12.8313293-5.4496765-23.4856567v-86.092453h25.9509888v84.5353851
		c-0.2425842,3.7410278,0.3330383,7.4900055,1.6868286,10.9859314c1.0352783,2.1439667,3.2686768,3.4446259,5.6443176,3.2871246
		c2.3317871-0.0465851,4.5943604-0.8007965,6.4877319-2.1625824c1.993042-1.2906342,3.5879211-3.1100922,4.6063232-5.2550507
		V55.6216469h25.9510193H522.4585571z"/>
	<path fill="#282828" d="M655.435791,55.6216469v115.2224426h-20.2850342l-2.1625977-14.1000519h-0.5622559
		c-5.5073853,10.6543274-13.7756348,15.9742737-24.8048706,15.9598846c-7.6411133,0-13.2781982-2.5014191-16.911377-7.5041656
		c-3.6331177-5.0027924-5.4497681-12.8313293-5.449707-23.4856567v-86.092453h25.9509888v84.5353851
		c-0.2426147,3.7410278,0.3330078,7.4900055,1.6868286,10.9859314c1.0352783,2.1439667,3.2686768,3.4446259,5.6442871,3.2871246
		c2.3318481-0.0465851,4.5943604-0.8007965,6.487793-2.1625824c1.993042-1.2906342,3.5878906-3.1100922,4.6062622-5.2550507
		V55.6216469h25.9510498H655.435791z"/>
	<path fill="#282828" d="M592.8938599,33.9958153h-25.7347412v136.8482666h-25.3671265V33.9958153H516.057251V13.1485109h76.8366089
		V33.9958153z"/>
	<path fill="#282828" d="M741.2471313,74.025238c-1.5714722-7.2086182-4.1089478-12.47089-7.6123047-15.7868652
		c-4.0098267-3.4374428-9.1947632-5.1889992-14.4677124-4.8874435c-4.75-0.0031013-9.394043,1.4043961-13.3431396,4.0440369
		c-4.0750122,2.6313095-7.3805542,6.2949409-9.5802002,10.6182785h-0.1946411V7.3311567H671.071228v163.5129242h21.4096069
		l2.6383057-10.812912h0.5623169c2.0183105,3.9026947,5.1593018,7.1114502,9.0180054,9.2126007
		c4.0770264,2.2699585,8.6771851,3.4330444,13.3431396,3.3736115c8.3170776,0.2855072,15.9748535-4.5059967,19.3551636-12.1104736
		c4.1377563-8.0736542,6.206604-20.6959381,6.206604-37.8668213V104.409523
		C743.8427124,94.2279358,743.0529175,84.0482559,741.2471313,74.025238z M717.4586792,120.9965363
		c0.1003418,6.5901413-0.246521,13.1795349-1.0380859,19.7227478c-0.2766113,3.6224365-1.4752197,7.1138916-3.4816895,10.1425171
		c-1.5718384,1.9635468-3.9735718,3.0763092-6.4877319,3.0059967c-2.0726318,0.0145569-4.1138306-0.5069275-5.9254761-1.5137939
		c-1.8343506-1.0650635-3.3328247-2.6235504-4.3251953-4.4981842V82.4809341
		c0.7642822-2.9354401,2.3290405-5.6008224,4.5198364-7.6987915c1.8291626-1.8750916,4.3228149-2.9549103,6.9418335-3.0059967
		c2.4320068-0.0983658,4.7407837,1.072403,6.0985107,3.0924988c1.7915039,3.1966553,2.8202515,6.7639465,3.0060425,10.4236526
		c0.6539917,6.9290009,0.9355469,13.8880997,0.8434448,20.8473053v14.9650726L717.4586792,120.9965363z"/>
</g>
</svg>
